<svg xmlns="http://www.w3.org/2000/svg" xmlns:xlink="http://www.w3.org/1999/xlink" width="1920" zoomAndPan="magnify" viewBox="0 0 1440 809.999993" height="1080" preserveAspectRatio="xMidYMid meet" version="1.0"><defs><clipPath id="31c00600a2"><path d="M 671.167969 386.765625 L 705.109375 386.765625 L 705.109375 393.460938 L 671.167969 393.460938 Z M 671.167969 386.765625 " clip-rule="nonzero"/></clipPath><clipPath id="4827f9ed2e"><path d="M 637.4375 386.765625 L 674 386.765625 L 674 422.765625 L 637.4375 422.765625 Z M 637.4375 386.765625 " clip-rule="nonzero"/></clipPath><clipPath id="388ff60558"><path d="M 675.027344 399.4375 L 706.609375 399.4375 L 706.609375 408.042969 L 675.027344 408.042969 Z M 675.027344 399.4375 " clip-rule="nonzero"/></clipPath><clipPath id="00636f82b7"><path d="M 675.027344 414.050781 L 713.160156 414.050781 L 713.160156 422.027344 L 675.027344 422.027344 Z M 675.027344 414.050781 " clip-rule="nonzero"/></clipPath><clipPath id="6e9baa2f40"><path d="M 694.890625 386.765625 L 720 386.765625 L 720 422.765625 L 694.890625 422.765625 Z M 694.890625 386.765625 " clip-rule="nonzero"/></clipPath><clipPath id="bec2c2598d"><path d="M 703.523438 385.398438 L 719.898438 422.332031 L 711.332031 426.128906 L 694.960938 389.195312 Z M 703.523438 385.398438 " clip-rule="nonzero"/></clipPath><clipPath id="44cf301306"><path d="M 703.523438 385.398438 L 719.894531 422.324219 L 711.328125 426.117188 L 694.960938 389.195312 Z M 703.523438 385.398438 " clip-rule="nonzero"/></clipPath><clipPath id="a070d8e65b"><path d="M 695 393.035156 L 712.625 393.035156 L 712.625 422.765625 L 695 422.765625 Z M 695 393.035156 " clip-rule="nonzero"/></clipPath><clipPath id="5a95a1e20a"><path d="M 697.28125 393.277344 L 712.523438 427.671875 L 710.355469 428.632812 L 695.109375 394.238281 Z M 697.28125 393.277344 " clip-rule="nonzero"/></clipPath><clipPath id="18dc2bf841"><path d="M 697.28125 393.277344 L 712.523438 427.667969 L 710.351562 428.628906 L 695.109375 394.238281 Z M 697.28125 393.277344 " clip-rule="nonzero"/></clipPath><clipPath id="7846943e71"><path d="M 730.652344 399.359375 L 772.816406 399.359375 L 772.816406 406.816406 L 730.652344 406.816406 Z M 730.652344 399.359375 " clip-rule="nonzero"/></clipPath><clipPath id="89345f8515"><path d="M 725.886719 414.050781 L 778.957031 414.050781 L 778.957031 422.027344 L 725.886719 422.027344 Z M 725.886719 414.050781 " clip-rule="nonzero"/></clipPath><clipPath id="d37c9d9e68"><path d="M 730.652344 386.765625 L 772.816406 386.765625 L 772.816406 393.496094 L 730.652344 393.496094 Z M 730.652344 386.765625 " clip-rule="nonzero"/></clipPath><clipPath id="202e4dd76a"><path d="M 707 386.765625 L 755 386.765625 L 755 422.765625 L 707 422.765625 Z M 707 386.765625 " clip-rule="nonzero"/></clipPath><clipPath id="09c06da0b5"><path d="M 701 386.765625 L 710.726562 386.765625 L 710.726562 391.769531 L 701 391.769531 Z M 701 386.765625 " clip-rule="nonzero"/></clipPath><clipPath id="57fb6c3c37"><path d="M 704.796875 379.582031 L 710.140625 389.761719 L 706.410156 391.722656 L 701.066406 381.542969 Z M 704.796875 379.582031 " clip-rule="nonzero"/></clipPath><clipPath id="fec333d107"><path d="M 704.796875 379.582031 L 710.136719 389.75 L 706.402344 391.707031 L 701.066406 381.542969 Z M 704.796875 379.582031 " clip-rule="nonzero"/></clipPath><clipPath id="6f9dfebed3"><path d="M 688.140625 422.027344 L 750.039062 422.027344 L 750.039062 422.765625 L 688.140625 422.765625 Z M 688.140625 422.027344 " clip-rule="nonzero"/></clipPath><clipPath id="222ae21a72"><path d="M 773 386.765625 L 803.1875 386.765625 L 803.1875 422 L 773 422 Z M 773 386.765625 " clip-rule="nonzero"/></clipPath></defs><g clip-path="url(#31c00600a2)"><path fill="#ffffff" d="M 671.167969 386.402344 L 705.113281 386.402344 L 705.113281 393.460938 L 671.167969 393.460938 Z M 671.167969 386.402344 " fill-opacity="1" fill-rule="nonzero"/></g><g clip-path="url(#4827f9ed2e)"><path fill="#ffffff" d="M 673.375 386.265625 L 644.761719 386.265625 C 640.835938 386.265625 637.617188 389.492188 637.617188 393.421875 L 637.617188 400.578125 C 637.617188 404.507812 640.835938 407.730469 644.761719 407.730469 L 666.230469 407.730469 L 666.230469 414.878906 L 637.617188 414.878906 L 637.617188 422.03125 L 666.230469 422.03125 C 670.15625 422.03125 673.375 418.816406 673.375 414.878906 L 673.375 407.730469 C 673.375 403.792969 670.15625 400.578125 666.230469 400.578125 L 644.761719 400.578125 L 644.761719 393.421875 L 673.375 393.421875 Z M 673.375 386.265625 " fill-opacity="1" fill-rule="nonzero"/></g><g clip-path="url(#388ff60558)"><path fill="#ffffff" d="M 675.027344 399.4375 L 706.59375 399.4375 L 706.59375 408.042969 L 675.027344 408.042969 Z M 675.027344 399.4375 " fill-opacity="1" fill-rule="nonzero"/></g><g clip-path="url(#00636f82b7)"><path fill="#ffffff" d="M 675.027344 414.050781 L 713.144531 414.050781 L 713.144531 422.027344 L 675.027344 422.027344 Z M 675.027344 414.050781 " fill-opacity="1" fill-rule="nonzero"/></g><g clip-path="url(#6e9baa2f40)"><g clip-path="url(#bec2c2598d)"><g clip-path="url(#44cf301306)"><path fill="#ffffff" d="M 703.523438 385.398438 L 719.898438 422.332031 L 711.332031 426.128906 L 694.960938 389.195312 Z M 703.523438 385.398438 " fill-opacity="1" fill-rule="nonzero"/></g></g></g><g clip-path="url(#a070d8e65b)"><g clip-path="url(#5a95a1e20a)"><g clip-path="url(#18dc2bf841)"><path fill="#ffffff" d="M 697.28125 393.277344 L 712.523438 427.671875 L 710.355469 428.632812 L 695.109375 394.238281 Z M 697.28125 393.277344 " fill-opacity="1" fill-rule="nonzero"/></g></g></g><g clip-path="url(#7846943e71)"><path fill="#ffffff" d="M 730.652344 399.359375 L 772.816406 399.359375 L 772.816406 406.816406 L 730.652344 406.816406 Z M 730.652344 399.359375 " fill-opacity="1" fill-rule="nonzero"/></g><g clip-path="url(#89345f8515)"><path fill="#ffffff" d="M 725.886719 414.050781 L 778.964844 414.050781 L 778.964844 422.027344 L 725.886719 422.027344 Z M 725.886719 414.050781 " fill-opacity="1" fill-rule="nonzero"/></g><g clip-path="url(#d37c9d9e68)"><path fill="#ffffff" d="M 730.652344 386.402344 L 772.816406 386.402344 L 772.816406 393.496094 L 730.652344 393.496094 Z M 730.652344 386.402344 " fill-opacity="1" fill-rule="nonzero"/></g><g clip-path="url(#202e4dd76a)"><path fill="#5e17eb" d="M 723.222656 424.289062 L 751.726562 392.363281 L 754.199219 385.070312 L 713.011719 385.832031 L 709.804688 395.203125 L 734.25 394.757812 L 707.132812 424.585938 Z M 723.222656 424.289062 " fill-opacity="1" fill-rule="nonzero"/></g><g clip-path="url(#09c06da0b5)"><g clip-path="url(#57fb6c3c37)"><g clip-path="url(#fec333d107)"><path fill="#ffffff" d="M 704.796875 379.582031 L 710.136719 389.75 L 706.402344 391.707031 L 701.066406 381.542969 Z M 704.796875 379.582031 " fill-opacity="1" fill-rule="nonzero"/></g></g></g><g clip-path="url(#6f9dfebed3)"><path fill="#ffffff" d="M 688.140625 422.027344 L 750.039062 422.027344 L 750.039062 431.648438 L 688.140625 431.648438 Z M 688.140625 422.027344 " fill-opacity="1" fill-rule="nonzero"/></g><g clip-path="url(#222ae21a72)"><path fill="#ffffff" d="M 780.816406 421.875 L 773.964844 421.875 L 773.964844 386.101562 L 782.0625 386.101562 L 796.429688 409.148438 L 797.066406 409.050781 L 797.066406 386.101562 L 803.863281 386.101562 L 803.863281 421.875 L 796.621094 421.875 L 781.429688 397.261719 L 780.816406 397.351562 Z M 780.816406 421.875 " fill-opacity="1" fill-rule="nonzero"/></g></svg>