<svg xmlns="http://www.w3.org/2000/svg" xmlns:xlink="http://www.w3.org/1999/xlink" width="1920" zoomAndPan="magnify" viewBox="0 0 1440 809.999993" height="1080" preserveAspectRatio="xMidYMid meet" version="1.0"><defs><clipPath id="7113ada7e7"><path d="M 670.417969 387.515625 L 704.359375 387.515625 L 704.359375 394.210938 L 670.417969 394.210938 Z M 670.417969 387.515625 " clip-rule="nonzero"/></clipPath><clipPath id="e0c6a14cda"><path d="M 636.6875 387.515625 L 673 387.515625 L 673 423 L 636.6875 423 Z M 636.6875 387.515625 " clip-rule="nonzero"/></clipPath><clipPath id="58fa05afe6"><path d="M 674.277344 400.1875 L 705.859375 400.1875 L 705.859375 408.792969 L 674.277344 408.792969 Z M 674.277344 400.1875 " clip-rule="nonzero"/></clipPath><clipPath id="be0e3383bb"><path d="M 674.277344 414.800781 L 712.410156 414.800781 L 712.410156 422.777344 L 674.277344 422.777344 Z M 674.277344 414.800781 " clip-rule="nonzero"/></clipPath><clipPath id="9969d552fe"><path d="M 694.140625 387.515625 L 719.476562 387.515625 L 719.476562 423.515625 L 694.140625 423.515625 Z M 694.140625 387.515625 " clip-rule="nonzero"/></clipPath><clipPath id="90a7a2e0fb"><path d="M 702.773438 386.148438 L 719.148438 423.082031 L 710.582031 426.878906 L 694.210938 389.945312 Z M 702.773438 386.148438 " clip-rule="nonzero"/></clipPath><clipPath id="e13169dd96"><path d="M 702.773438 386.148438 L 719.144531 423.074219 L 710.578125 426.867188 L 694.210938 389.945312 Z M 702.773438 386.148438 " clip-rule="nonzero"/></clipPath><clipPath id="9dc37ec045"><path d="M 694.140625 394 L 711.875 394 L 711.875 423.515625 L 694.140625 423.515625 Z M 694.140625 394 " clip-rule="nonzero"/></clipPath><clipPath id="011fece99d"><path d="M 696.53125 394.027344 L 711.773438 428.421875 L 709.605469 429.382812 L 694.359375 394.988281 Z M 696.53125 394.027344 " clip-rule="nonzero"/></clipPath><clipPath id="1af630bae8"><path d="M 696.53125 394.027344 L 711.773438 428.417969 L 709.601562 429.378906 L 694.359375 394.988281 Z M 696.53125 394.027344 " clip-rule="nonzero"/></clipPath><clipPath id="d5fdc70024"><path d="M 729.902344 400.109375 L 772.066406 400.109375 L 772.066406 407.566406 L 729.902344 407.566406 Z M 729.902344 400.109375 " clip-rule="nonzero"/></clipPath><clipPath id="94d24530b7"><path d="M 725.136719 414.800781 L 778.207031 414.800781 L 778.207031 422.777344 L 725.136719 422.777344 Z M 725.136719 414.800781 " clip-rule="nonzero"/></clipPath><clipPath id="9ea3539620"><path d="M 729.902344 387.515625 L 772.066406 387.515625 L 772.066406 394.246094 L 729.902344 394.246094 Z M 729.902344 387.515625 " clip-rule="nonzero"/></clipPath><clipPath id="8fc14aa1aa"><path d="M 706 387.515625 L 754 387.515625 L 754 423.515625 L 706 423.515625 Z M 706 387.515625 " clip-rule="nonzero"/></clipPath><clipPath id="445ec7ee0a"><path d="M 700 387.515625 L 709.976562 387.515625 L 709.976562 392.519531 L 700 392.519531 Z M 700 387.515625 " clip-rule="nonzero"/></clipPath><clipPath id="0bad94aed0"><path d="M 704.046875 380.332031 L 709.390625 390.511719 L 705.660156 392.472656 L 700.316406 382.292969 Z M 704.046875 380.332031 " clip-rule="nonzero"/></clipPath><clipPath id="44111b7f8e"><path d="M 704.046875 380.332031 L 709.386719 390.5 L 705.652344 392.457031 L 700.316406 382.292969 Z M 704.046875 380.332031 " clip-rule="nonzero"/></clipPath><clipPath id="a5abbb3429"><path d="M 687.390625 422.777344 L 749.289062 422.777344 L 749.289062 423.515625 L 687.390625 423.515625 Z M 687.390625 422.777344 " clip-rule="nonzero"/></clipPath><clipPath id="3315a2841a"><path d="M 773 387.515625 L 802.4375 387.515625 L 802.4375 423 L 773 423 Z M 773 387.515625 " clip-rule="nonzero"/></clipPath><clipPath id="5b0d927675"><path d="M 672.722656 387.339844 L 705.644531 387.339844 L 705.644531 394.1875 L 672.722656 394.1875 Z M 672.722656 387.339844 " clip-rule="nonzero"/></clipPath><clipPath id="19fe3b11f4"><path d="M 641.113281 387 L 675 387 L 675 421.328125 L 641.113281 421.328125 Z M 641.113281 387 " clip-rule="nonzero"/></clipPath><clipPath id="18868b576f"><path d="M 676.464844 399.980469 L 707.101562 399.980469 L 707.101562 408.332031 L 676.464844 408.332031 Z M 676.464844 399.980469 " clip-rule="nonzero"/></clipPath><clipPath id="f0a3160068"><path d="M 676.464844 414.15625 L 713.453125 414.15625 L 713.453125 421.328125 L 676.464844 421.328125 Z M 676.464844 414.15625 " clip-rule="nonzero"/></clipPath><clipPath id="f7cf5511e8"><path d="M 695.734375 386.828125 L 720 386.828125 L 720 421.328125 L 695.734375 421.328125 Z M 695.734375 386.828125 " clip-rule="nonzero"/></clipPath><clipPath id="142cb48fe7"><path d="M 704.109375 386.363281 L 719.992188 422.191406 L 711.683594 425.871094 L 695.800781 390.046875 Z M 704.109375 386.363281 " clip-rule="nonzero"/></clipPath><clipPath id="2bbb0af31e"><path d="M 704.109375 386.363281 L 719.984375 422.179688 L 711.675781 425.863281 L 695.800781 390.046875 Z M 704.109375 386.363281 " clip-rule="nonzero"/></clipPath><clipPath id="e1b2852c0e"><path d="M 695.734375 394 L 712.9375 394 L 712.9375 421.328125 L 695.734375 421.328125 Z M 695.734375 394 " clip-rule="nonzero"/></clipPath><clipPath id="1ca0bfb3da"><path d="M 698.050781 394.007812 L 712.839844 427.371094 L 710.734375 428.304688 L 695.945312 394.941406 Z M 698.050781 394.007812 " clip-rule="nonzero"/></clipPath><clipPath id="bf58a56d35"><path d="M 698.050781 394.007812 L 712.839844 427.363281 L 710.730469 428.296875 L 695.945312 394.941406 Z M 698.050781 394.007812 " clip-rule="nonzero"/></clipPath><clipPath id="416bef0396"><path d="M 730.421875 399.90625 L 771.320312 399.90625 L 771.320312 407.136719 L 730.421875 407.136719 Z M 730.421875 399.90625 " clip-rule="nonzero"/></clipPath><clipPath id="28c738e908"><path d="M 725.800781 414.15625 L 777.277344 414.15625 L 777.277344 421.328125 L 725.800781 421.328125 Z M 725.800781 414.15625 " clip-rule="nonzero"/></clipPath><clipPath id="1b0bef7f12"><path d="M 730.421875 387.339844 L 771.320312 387.339844 L 771.320312 394.21875 L 730.421875 394.21875 Z M 730.421875 387.339844 " clip-rule="nonzero"/></clipPath><clipPath id="2f97f7de16"><path d="M 707 386.828125 L 754 386.828125 L 754 421.328125 L 707 421.328125 Z M 707 386.828125 " clip-rule="nonzero"/></clipPath><clipPath id="a5ac712bc1"><path d="M 700.398438 386.828125 L 760.441406 386.828125 L 760.441406 387.339844 L 700.398438 387.339844 Z M 700.398438 386.828125 " clip-rule="nonzero"/></clipPath><clipPath id="98cea94584"><path d="M 701.265625 386.828125 L 711 386.828125 L 711 392.542969 L 701.265625 392.542969 Z M 701.265625 386.828125 " clip-rule="nonzero"/></clipPath><clipPath id="b5c902a3ef"><path d="M 705.34375 380.722656 L 710.527344 390.597656 L 706.90625 392.5 L 701.722656 382.625 Z M 705.34375 380.722656 " clip-rule="nonzero"/></clipPath><clipPath id="6e34feb257"><path d="M 705.34375 380.722656 L 710.519531 390.582031 L 706.898438 392.484375 L 701.722656 382.625 Z M 705.34375 380.722656 " clip-rule="nonzero"/></clipPath><clipPath id="0edd79d82f"><path d="M 772 387 L 802 387 L 802 421.328125 L 772 421.328125 Z M 772 387 " clip-rule="nonzero"/></clipPath></defs><g clip-path="url(#7113ada7e7)"><path fill="#ffffff" d="M 670.417969 387.152344 L 704.363281 387.152344 L 704.363281 394.210938 L 670.417969 394.210938 Z M 670.417969 387.152344 " fill-opacity="1" fill-rule="nonzero"/></g><g clip-path="url(#e0c6a14cda)"><path fill="#ffffff" d="M 672.625 387.015625 L 644.011719 387.015625 C 640.085938 387.015625 636.867188 390.242188 636.867188 394.171875 L 636.867188 401.328125 C 636.867188 405.257812 640.085938 408.480469 644.011719 408.480469 L 665.480469 408.480469 L 665.480469 415.628906 L 636.867188 415.628906 L 636.867188 422.78125 L 665.480469 422.78125 C 669.40625 422.78125 672.625 419.566406 672.625 415.628906 L 672.625 408.480469 C 672.625 404.542969 669.40625 401.328125 665.480469 401.328125 L 644.011719 401.328125 L 644.011719 394.171875 L 672.625 394.171875 Z M 672.625 387.015625 " fill-opacity="1" fill-rule="nonzero"/></g><g clip-path="url(#58fa05afe6)"><path fill="#ffffff" d="M 674.277344 400.1875 L 705.84375 400.1875 L 705.84375 408.792969 L 674.277344 408.792969 Z M 674.277344 400.1875 " fill-opacity="1" fill-rule="nonzero"/></g><g clip-path="url(#be0e3383bb)"><path fill="#ffffff" d="M 674.277344 414.800781 L 712.394531 414.800781 L 712.394531 422.777344 L 674.277344 422.777344 Z M 674.277344 414.800781 " fill-opacity="1" fill-rule="nonzero"/></g><g clip-path="url(#9969d552fe)"><g clip-path="url(#90a7a2e0fb)"><g clip-path="url(#e13169dd96)"><path fill="#ffffff" d="M 702.773438 386.148438 L 719.148438 423.082031 L 710.582031 426.878906 L 694.210938 389.945312 Z M 702.773438 386.148438 " fill-opacity="1" fill-rule="nonzero"/></g></g></g><g clip-path="url(#9dc37ec045)"><g clip-path="url(#011fece99d)"><g clip-path="url(#1af630bae8)"><path fill="#ffffff" d="M 696.53125 394.027344 L 711.773438 428.421875 L 709.605469 429.382812 L 694.359375 394.988281 Z M 696.53125 394.027344 " fill-opacity="1" fill-rule="nonzero"/></g></g></g><g clip-path="url(#d5fdc70024)"><path fill="#ffffff" d="M 729.902344 400.109375 L 772.066406 400.109375 L 772.066406 407.566406 L 729.902344 407.566406 Z M 729.902344 400.109375 " fill-opacity="1" fill-rule="nonzero"/></g><g clip-path="url(#94d24530b7)"><path fill="#ffffff" d="M 725.136719 414.800781 L 778.214844 414.800781 L 778.214844 422.777344 L 725.136719 422.777344 Z M 725.136719 414.800781 " fill-opacity="1" fill-rule="nonzero"/></g><g clip-path="url(#9ea3539620)"><path fill="#ffffff" d="M 729.902344 387.152344 L 772.066406 387.152344 L 772.066406 394.246094 L 729.902344 394.246094 Z M 729.902344 387.152344 " fill-opacity="1" fill-rule="nonzero"/></g><g clip-path="url(#8fc14aa1aa)"><path fill="#5e17eb" d="M 722.472656 425.039062 L 750.976562 393.113281 L 753.449219 385.820312 L 712.261719 386.582031 L 709.054688 395.953125 L 733.5 395.507812 L 706.382812 425.335938 Z M 722.472656 425.039062 " fill-opacity="1" fill-rule="nonzero"/></g><g clip-path="url(#445ec7ee0a)"><g clip-path="url(#0bad94aed0)"><g clip-path="url(#44111b7f8e)"><path fill="#ffffff" d="M 704.046875 380.332031 L 709.386719 390.5 L 705.652344 392.457031 L 700.316406 382.292969 Z M 704.046875 380.332031 " fill-opacity="1" fill-rule="nonzero"/></g></g></g><g clip-path="url(#a5abbb3429)"><path fill="#ffffff" d="M 687.390625 422.777344 L 749.289062 422.777344 L 749.289062 432.398438 L 687.390625 432.398438 Z M 687.390625 422.777344 " fill-opacity="1" fill-rule="nonzero"/></g><g clip-path="url(#3315a2841a)"><path fill="#ffffff" d="M 780.066406 422.625 L 773.214844 422.625 L 773.214844 386.851562 L 781.3125 386.851562 L 795.679688 409.898438 L 796.316406 409.800781 L 796.316406 386.851562 L 803.113281 386.851562 L 803.113281 422.625 L 795.871094 422.625 L 780.679688 398.011719 L 780.066406 398.101562 Z M 780.066406 422.625 " fill-opacity="1" fill-rule="nonzero"/></g><g clip-path="url(#5b0d927675)"><path fill="#ffffff" d="M 672.722656 387.339844 L 705.652344 387.339844 L 705.652344 394.1875 L 672.722656 394.1875 Z M 672.722656 387.339844 " fill-opacity="1" fill-rule="nonzero"/></g><g clip-path="url(#19fe3b11f4)"><path fill="#ffffff" d="M 674.863281 387.207031 L 647.109375 387.207031 C 643.296875 387.207031 640.179688 390.335938 640.179688 394.148438 L 640.179688 401.085938 C 640.179688 404.898438 643.296875 408.027344 647.109375 408.027344 L 667.929688 408.027344 L 667.929688 414.957031 L 640.179688 414.957031 L 640.179688 421.898438 L 667.929688 421.898438 C 671.742188 421.898438 674.863281 418.78125 674.863281 414.957031 L 674.863281 408.027344 C 674.863281 404.207031 671.742188 401.085938 667.929688 401.085938 L 647.109375 401.085938 L 647.109375 394.148438 L 674.863281 394.148438 Z M 674.863281 387.207031 " fill-opacity="1" fill-rule="nonzero"/></g><g clip-path="url(#18868b576f)"><path fill="#ffffff" d="M 676.464844 399.980469 L 707.082031 399.980469 L 707.082031 408.332031 L 676.464844 408.332031 Z M 676.464844 399.980469 " fill-opacity="1" fill-rule="nonzero"/></g><g clip-path="url(#f0a3160068)"><path fill="#ffffff" d="M 676.464844 414.15625 L 713.4375 414.15625 L 713.4375 421.894531 L 676.464844 421.894531 Z M 676.464844 414.15625 " fill-opacity="1" fill-rule="nonzero"/></g><g clip-path="url(#f7cf5511e8)"><g clip-path="url(#142cb48fe7)"><g clip-path="url(#2bbb0af31e)"><path fill="#ffffff" d="M 704.109375 386.363281 L 719.992188 422.191406 L 711.683594 425.871094 L 695.800781 390.046875 Z M 704.109375 386.363281 " fill-opacity="1" fill-rule="nonzero"/></g></g></g><g clip-path="url(#e1b2852c0e)"><g clip-path="url(#1ca0bfb3da)"><g clip-path="url(#bf58a56d35)"><path fill="#ffffff" d="M 698.050781 394.007812 L 712.839844 427.371094 L 710.734375 428.304688 L 695.945312 394.941406 Z M 698.050781 394.007812 " fill-opacity="1" fill-rule="nonzero"/></g></g></g><g clip-path="url(#416bef0396)"><path fill="#ffffff" d="M 730.421875 399.90625 L 771.320312 399.90625 L 771.320312 407.136719 L 730.421875 407.136719 Z M 730.421875 399.90625 " fill-opacity="1" fill-rule="nonzero"/></g><g clip-path="url(#28c738e908)"><path fill="#ffffff" d="M 725.800781 414.15625 L 777.285156 414.15625 L 777.285156 421.894531 L 725.800781 421.894531 Z M 725.800781 414.15625 " fill-opacity="1" fill-rule="nonzero"/></g><g clip-path="url(#1b0bef7f12)"><path fill="#ffffff" d="M 730.421875 387.339844 L 771.320312 387.339844 L 771.320312 394.21875 L 730.421875 394.21875 Z M 730.421875 387.339844 " fill-opacity="1" fill-rule="nonzero"/></g><g clip-path="url(#2f97f7de16)"><path fill="#5e17eb" d="M 723.214844 424.089844 L 750.863281 393.121094 L 753.261719 386.046875 L 713.308594 386.785156 L 710.199219 395.875 L 733.910156 395.445312 L 707.609375 424.375 Z M 723.214844 424.089844 " fill-opacity="1" fill-rule="nonzero"/></g><g clip-path="url(#a5ac712bc1)"><path fill="#ffffff" d="M 700.398438 378.007812 L 760.441406 378.007812 L 760.441406 387.339844 L 700.398438 387.339844 Z M 700.398438 378.007812 " fill-opacity="1" fill-rule="nonzero"/></g><g clip-path="url(#98cea94584)"><g clip-path="url(#b5c902a3ef)"><g clip-path="url(#6e34feb257)"><path fill="#ffffff" d="M 705.34375 380.722656 L 710.519531 390.582031 L 706.898438 392.484375 L 701.722656 382.625 Z M 705.34375 380.722656 " fill-opacity="1" fill-rule="nonzero"/></g></g></g><g clip-path="url(#0edd79d82f)"><path fill="#ffffff" d="M 779.078125 421.746094 L 772.4375 421.746094 L 772.4375 387.046875 L 780.289062 387.046875 L 794.226562 409.402344 L 794.84375 409.304688 L 794.84375 387.046875 L 801.4375 387.046875 L 801.4375 421.746094 L 794.410156 421.746094 L 779.675781 397.875 L 779.078125 397.960938 Z M 779.078125 421.746094 " fill-opacity="1" fill-rule="nonzero"/></g></svg>